<svg width="110" height="140" viewBox="0 0 110 140" fill="none" xmlns="http://www.w3.org/2000/svg">
<path id="arrow" fill-rule="evenodd" clip-rule="evenodd" d="M50.9782 0.766184L51 0H59L59.0112 0.484416L59.0218 0.766184L59.0526 1.38589L59.0973 2.07829C59.2229 3.83747 59.4503 5.80844 59.805 7.93615C60.8178 14.0132 62.6389 20.0835 65.4527 25.7111C73.3119 41.4296 87.2271 50.8111 109.328 50.9972L110 51V59C85.0024 59 68.3866 48.3364 59 30.6527V140H51V30.6527C41.7097 48.1551 25.3376 58.7806 0.766371 58.9966L0 59V51C22.4912 51 36.6087 41.5883 44.5473 25.7111C47.3611 20.0835 49.1822 14.0132 50.195 7.93615C50.5497 5.80844 50.7771 3.83747 50.9027 2.07829L50.9474 1.38589L50.9782 0.766184Z" fill="black"/>
</svg>
